<svg xmlns="http://www.w3.org/2000/svg" xmlns:xlink="http://www.w3.org/1999/xlink" width="125" zoomAndPan="magnify" viewBox="0 0 93.75 93.749997" height="125" preserveAspectRatio="xMidYMid meet" version="1.0"><defs><g/><clipPath id="4e1e9fdb29"><path d="M 0 0 L 93.5 0 L 93.5 93.5 L 0 93.5 Z M 0 0 " clip-rule="nonzero"/></clipPath><clipPath id="78ea57743b"><path d="M 25.15625 32.339844 L 57.40625 32.339844 L 57.40625 46.589844 L 25.15625 46.589844 Z M 25.15625 32.339844 " clip-rule="nonzero"/></clipPath></defs><g clip-path="url(#4e1e9fdb29)"><path fill="#ffffff" d="M 0 0 L 93.75 0 L 93.75 93.75 L 0 93.75 Z M 0 0 " fill-opacity="1" fill-rule="nonzero"/><path fill="#ffffff" d="M 0 0 L 93.75 0 L 93.75 93.75 L 0 93.75 Z M 0 0 " fill-opacity="1" fill-rule="nonzero"/></g><g clip-path="url(#78ea57743b)"><path fill="#00adef" d="M 37.972656 33.992188 L 37.972656 36.984375 L 25.175781 37.976562 L 41.554688 37.976562 L 37.972656 38.570312 L 37.972656 39.914062 L 27.972656 40.691406 L 44.351562 40.691406 L 37.972656 41.542969 L 37.972656 43.753906 L 28.605469 44.480469 L 44.984375 44.480469 L 37.972656 45.238281 C 37.972656 45.984375 38.566406 46.589844 39.300781 46.589844 L 56.058594 46.589844 C 56.792969 46.589844 57.386719 45.984375 57.386719 45.238281 L 57.386719 33.992188 L 47.679688 40.847656 Z M 57.386719 32.339844 L 37.972656 32.339844 L 47.679688 39.199219 Z M 57.386719 32.339844 " fill-opacity="1" fill-rule="nonzero"/></g><g fill="#1c2a4e" fill-opacity="1"><g transform="translate(10.946415, 58.867371)"><g><path d="M 4.703125 -3.546875 L 4.703125 -2.609375 L 0.828125 -0.234375 L 0.828125 -1.390625 L 3.59375 -3.078125 L 0.828125 -4.765625 L 0.828125 -5.921875 Z M 4.703125 -3.546875 "/></g></g></g><g fill="#1c2a4e" fill-opacity="1"><g transform="translate(16.806323, 58.867371)"><g><path d="M 4.703125 -3.546875 L 4.703125 -2.609375 L 0.828125 -0.234375 L 0.828125 -1.390625 L 3.59375 -3.078125 L 0.828125 -4.765625 L 0.828125 -5.921875 Z M 4.703125 -3.546875 "/></g></g></g><g fill="#1c2a4e" fill-opacity="1"><g transform="translate(22.666232, 58.867371)"><g><path d="M 4.703125 -3.546875 L 4.703125 -2.609375 L 0.828125 -0.234375 L 0.828125 -1.390625 L 3.59375 -3.078125 L 0.828125 -4.765625 L 0.828125 -5.921875 Z M 4.703125 -3.546875 "/></g></g></g><g fill="#1c2a4e" fill-opacity="1"><g transform="translate(28.52614, 58.867371)"><g/></g></g><g fill="#1c2a4e" fill-opacity="1"><g transform="translate(30.820107, 58.867371)"><g><path d="M 6.453125 -3.640625 C 6.453125 -2.773438 6.304688 -2.039062 6.015625 -1.4375 C 5.722656 -0.832031 5.296875 -0.398438 4.734375 -0.140625 L 5.53125 1.15625 L 4.328125 1.796875 L 3.546875 0.125 L 3.4375 0.125 C 2.789062 0.125 2.238281 -0.0234375 1.78125 -0.328125 C 1.332031 -0.640625 0.988281 -1.078125 0.75 -1.640625 C 0.519531 -2.203125 0.40625 -2.867188 0.40625 -3.640625 C 0.40625 -4.390625 0.519531 -5.046875 0.75 -5.609375 C 0.976562 -6.179688 1.316406 -6.617188 1.765625 -6.921875 C 2.222656 -7.234375 2.769531 -7.390625 3.40625 -7.390625 C 4.070312 -7.390625 4.628906 -7.234375 5.078125 -6.921875 C 5.535156 -6.609375 5.878906 -6.171875 6.109375 -5.609375 C 6.335938 -5.046875 6.453125 -4.390625 6.453125 -3.640625 Z M 1.796875 -3.65625 C 1.796875 -3.0625 1.863281 -2.566406 2 -2.171875 C 2.132812 -1.773438 2.320312 -1.476562 2.5625 -1.28125 C 2.8125 -1.082031 3.101562 -0.984375 3.4375 -0.984375 C 3.75 -0.984375 4.023438 -1.082031 4.265625 -1.28125 C 4.515625 -1.476562 4.707031 -1.78125 4.84375 -2.1875 C 4.988281 -2.59375 5.0625 -3.085938 5.0625 -3.671875 C 5.0625 -4.523438 4.914062 -5.175781 4.625 -5.625 C 4.332031 -6.082031 3.925781 -6.3125 3.40625 -6.3125 C 2.894531 -6.3125 2.5 -6.082031 2.21875 -5.625 C 1.9375 -5.175781 1.796875 -4.519531 1.796875 -3.65625 Z M 1.796875 -3.65625 "/></g></g></g><g fill="#1c2a4e" fill-opacity="1"><g transform="translate(37.993782, 58.867371)"><g><path d="M 3.265625 0.140625 C 2.484375 0.140625 1.859375 -0.0664062 1.390625 -0.484375 C 0.921875 -0.910156 0.6875 -1.613281 0.6875 -2.59375 L 0.6875 -7.265625 L 2.046875 -7.265625 L 2.046875 -2.453125 C 2.046875 -1.898438 2.164062 -1.519531 2.40625 -1.3125 C 2.644531 -1.101562 2.925781 -1 3.25 -1 C 3.570312 -1 3.847656 -1.097656 4.078125 -1.296875 C 4.304688 -1.503906 4.421875 -1.890625 4.421875 -2.453125 L 4.421875 -7.265625 L 5.78125 -7.265625 L 5.78125 -2.59375 C 5.78125 -1.613281 5.550781 -0.910156 5.09375 -0.484375 C 4.644531 -0.0664062 4.035156 0.140625 3.265625 0.140625 Z M 3.265625 0.140625 "/></g></g></g><g fill="#1c2a4e" fill-opacity="1"><g transform="translate(44.78167, 58.867371)"><g><path d="M 0.84375 -7.265625 L 2.171875 -7.265625 L 2.171875 0 L 0.84375 0 Z M 0.84375 -7.265625 "/></g></g></g><g fill="#1c2a4e" fill-opacity="1"><g transform="translate(48.118312, 58.867371)"><g><path d="M 3.328125 0.125 C 2.804688 0.125 2.320312 -0.015625 1.875 -0.296875 C 1.425781 -0.578125 1.066406 -1.007812 0.796875 -1.59375 C 0.523438 -2.175781 0.390625 -2.890625 0.390625 -3.734375 C 0.390625 -4.492188 0.523438 -5.148438 0.796875 -5.703125 C 1.066406 -6.253906 1.429688 -6.671875 1.890625 -6.953125 C 2.359375 -7.242188 2.878906 -7.390625 3.453125 -7.390625 C 3.796875 -7.390625 4.085938 -7.351562 4.328125 -7.28125 C 4.578125 -7.21875 4.769531 -7.140625 4.90625 -7.046875 C 5.050781 -6.960938 5.1875 -6.863281 5.3125 -6.75 L 4.734375 -5.65625 C 4.609375 -5.78125 4.5 -5.878906 4.40625 -5.953125 C 4.3125 -6.023438 4.191406 -6.082031 4.046875 -6.125 C 3.898438 -6.164062 3.71875 -6.1875 3.5 -6.1875 C 3.15625 -6.1875 2.859375 -6.082031 2.609375 -5.875 C 2.359375 -5.675781 2.164062 -5.394531 2.03125 -5.03125 C 1.894531 -4.675781 1.828125 -4.265625 1.828125 -3.796875 C 1.828125 -3.210938 1.894531 -2.710938 2.03125 -2.296875 C 2.175781 -1.890625 2.363281 -1.582031 2.59375 -1.375 C 2.832031 -1.164062 3.097656 -1.0625 3.390625 -1.0625 C 3.691406 -1.0625 3.960938 -1.101562 4.203125 -1.1875 C 4.441406 -1.28125 4.625 -1.390625 4.75 -1.515625 L 5.328125 -0.484375 C 5.109375 -0.316406 4.847656 -0.171875 4.546875 -0.046875 C 4.253906 0.0664062 3.847656 0.125 3.328125 0.125 Z M 3.328125 0.125 "/></g></g></g><g fill="#1c2a4e" fill-opacity="1"><g transform="translate(53.926087, 58.867371)"><g><path d="M 4.546875 0 L 2.203125 -3.484375 L 2.203125 0 L 0.875 0 L 0.875 -7.265625 L 2.203125 -7.265625 L 2.203125 -3.640625 L 4.515625 -7.265625 L 6.046875 -7.265625 L 3.5625 -3.65625 L 6.21875 0 Z M 4.546875 0 "/></g></g></g><g fill="#1c2a4e" fill-opacity="1"><g transform="translate(60.453305, 58.867371)"><g><path d="M 6.953125 -7.390625 L 6.953125 0 L 5.65625 0 L 5.65625 -3.109375 L 5.703125 -4.34375 L 5.34375 -3.78125 L 3.90625 -2.109375 L 2.484375 -3.78125 L 2.109375 -4.34375 L 2.171875 -3.109375 L 2.171875 0 L 0.875 0 L 0.875 -7.390625 L 0.984375 -7.390625 L 3.921875 -3.921875 L 6.84375 -7.390625 Z M 6.953125 -7.390625 "/></g></g></g><g fill="#1c2a4e" fill-opacity="1"><g transform="translate(68.596668, 58.867371)"><g><path d="M 4.265625 -1.046875 L 1.671875 -1.046875 L 1.28125 0 L -0.171875 0 L 2.890625 -7.390625 L 3 -7.390625 L 6.09375 0 L 4.671875 0 Z M 3.875 -2.0625 L 3.109375 -4.046875 L 2.9375 -4.625 L 2.765625 -4.046875 L 2.046875 -2.0625 Z M 3.875 -2.0625 "/></g></g></g><g fill="#1c2a4e" fill-opacity="1"><g transform="translate(74.821509, 58.867371)"><g><path d="M 0.84375 -7.265625 L 2.171875 -7.265625 L 2.171875 0 L 0.84375 0 Z M 0.84375 -7.265625 "/></g></g></g><g fill="#1c2a4e" fill-opacity="1"><g transform="translate(78.158148, 58.867371)"><g><path d="M 4.359375 -1.140625 L 4.359375 0 L 0.875 0 L 0.875 -7.265625 L 2.203125 -7.265625 L 2.203125 -1.140625 Z M 4.359375 -1.140625 "/></g></g></g></svg>