<svg xmlns="http://www.w3.org/2000/svg" xmlns:xlink="http://www.w3.org/1999/xlink" width="500" zoomAndPan="magnify" viewBox="0 0 375 374.999991" height="500" preserveAspectRatio="xMidYMid meet" version="1.0"><defs><g/><clipPath id="290e36d4a7"><path d="M 100.625 129.363281 L 230.375 129.363281 L 230.375 185.613281 L 100.625 185.613281 Z M 100.625 129.363281 " clip-rule="nonzero"/></clipPath></defs><g clip-path="url(#290e36d4a7)"><path fill="#00adef" d="M 152.179688 135.882812 L 152.179688 147.695312 L 100.675781 151.609375 L 166.601562 151.609375 L 152.179688 153.953125 L 152.179688 159.265625 L 111.929688 162.324219 L 177.859375 162.324219 L 152.179688 165.691406 L 152.179688 174.421875 L 114.472656 177.285156 L 180.402344 177.285156 L 152.179688 180.269531 C 152.179688 183.21875 154.574219 185.613281 157.523438 185.613281 L 224.984375 185.613281 C 227.933594 185.613281 230.328125 183.21875 230.328125 180.269531 L 230.328125 135.882812 L 191.253906 162.949219 Z M 230.328125 129.363281 L 152.179688 129.363281 L 191.253906 156.429688 Z M 230.328125 129.363281 " fill-opacity="1" fill-rule="nonzero"/></g><g fill="#1c2a4e" fill-opacity="1"><g transform="translate(43.785661, 235.469502)"><g><path d="M 18.859375 -14.21875 L 18.859375 -10.4375 L 3.34375 -0.921875 L 3.34375 -5.59375 L 14.375 -12.328125 L 3.34375 -19.0625 L 3.34375 -23.703125 Z M 18.859375 -14.21875 "/></g></g></g><g fill="#1c2a4e" fill-opacity="1"><g transform="translate(67.225295, 235.469502)"><g><path d="M 18.859375 -14.21875 L 18.859375 -10.4375 L 3.34375 -0.921875 L 3.34375 -5.59375 L 14.375 -12.328125 L 3.34375 -19.0625 L 3.34375 -23.703125 Z M 18.859375 -14.21875 "/></g></g></g><g fill="#1c2a4e" fill-opacity="1"><g transform="translate(90.66493, 235.469502)"><g><path d="M 18.859375 -14.21875 L 18.859375 -10.4375 L 3.34375 -0.921875 L 3.34375 -5.59375 L 14.375 -12.328125 L 3.34375 -19.0625 L 3.34375 -23.703125 Z M 18.859375 -14.21875 "/></g></g></g><g fill="#1c2a4e" fill-opacity="1"><g transform="translate(114.104566, 235.469502)"><g/></g></g><g fill="#1c2a4e" fill-opacity="1"><g transform="translate(123.280432, 235.469502)"><g><path d="M 25.828125 -14.5625 C 25.828125 -11.125 25.238281 -8.195312 24.0625 -5.78125 C 22.882812 -3.363281 21.191406 -1.628906 18.984375 -0.578125 L 22.15625 4.625 L 17.359375 7.21875 L 14.1875 0.5 L 13.765625 0.5 C 11.179688 0.5 8.976562 -0.113281 7.15625 -1.34375 C 5.332031 -2.570312 3.953125 -4.316406 3.015625 -6.578125 C 2.085938 -8.835938 1.625 -11.5 1.625 -14.5625 C 1.625 -17.59375 2.085938 -20.238281 3.015625 -22.5 C 3.941406 -24.757812 5.300781 -26.503906 7.09375 -27.734375 C 8.894531 -28.960938 11.078125 -29.578125 13.640625 -29.578125 C 16.296875 -29.578125 18.535156 -28.953125 20.359375 -27.703125 C 22.179688 -26.460938 23.546875 -24.71875 24.453125 -22.46875 C 25.367188 -20.21875 25.828125 -17.582031 25.828125 -14.5625 Z M 7.21875 -14.640625 C 7.21875 -12.273438 7.484375 -10.296875 8.015625 -8.703125 C 8.554688 -7.117188 9.316406 -5.929688 10.296875 -5.140625 C 11.273438 -4.359375 12.429688 -3.96875 13.765625 -3.96875 C 15.003906 -3.96875 16.113281 -4.363281 17.09375 -5.15625 C 18.070312 -5.945312 18.847656 -7.148438 19.421875 -8.765625 C 19.992188 -10.378906 20.28125 -12.351562 20.28125 -14.6875 C 20.28125 -18.125 19.695312 -20.738281 18.53125 -22.53125 C 17.375 -24.332031 15.742188 -25.234375 13.640625 -25.234375 C 11.597656 -25.234375 10.015625 -24.332031 8.890625 -22.53125 C 7.773438 -20.738281 7.21875 -18.109375 7.21875 -14.640625 Z M 7.21875 -14.640625 "/></g></g></g><g fill="#1c2a4e" fill-opacity="1"><g transform="translate(151.975134, 235.469502)"><g><path d="M 13.09375 0.546875 C 9.9375 0.546875 7.421875 -0.296875 5.546875 -1.984375 C 3.679688 -3.679688 2.75 -6.484375 2.75 -10.390625 L 2.75 -29.078125 L 8.171875 -29.078125 L 8.171875 -9.796875 C 8.171875 -7.609375 8.65625 -6.09375 9.625 -5.25 C 10.59375 -4.414062 11.722656 -4 13.015625 -4 C 14.328125 -4 15.441406 -4.410156 16.359375 -5.234375 C 17.273438 -6.054688 17.734375 -7.578125 17.734375 -9.796875 L 17.734375 -29.078125 L 23.15625 -29.078125 L 23.15625 -10.390625 C 23.15625 -6.484375 22.242188 -3.679688 20.421875 -1.984375 C 18.597656 -0.296875 16.15625 0.546875 13.09375 0.546875 Z M 13.09375 0.546875 "/></g></g></g><g fill="#1c2a4e" fill-opacity="1"><g transform="translate(179.126686, 235.469502)"><g><path d="M 3.375 -29.078125 L 8.71875 -29.078125 L 8.71875 0 L 3.375 0 Z M 3.375 -29.078125 "/></g></g></g><g fill="#1c2a4e" fill-opacity="1"><g transform="translate(192.473254, 235.469502)"><g><path d="M 13.34375 0.5 C 11.25 0.5 9.300781 -0.0664062 7.5 -1.203125 C 5.707031 -2.335938 4.265625 -4.0625 3.171875 -6.375 C 2.085938 -8.695312 1.546875 -11.550781 1.546875 -14.9375 C 1.546875 -18.007812 2.085938 -20.644531 3.171875 -22.84375 C 4.253906 -25.050781 5.722656 -26.722656 7.578125 -27.859375 C 9.429688 -29.003906 11.507812 -29.578125 13.8125 -29.578125 C 15.21875 -29.578125 16.40625 -29.441406 17.375 -29.171875 C 18.351562 -28.898438 19.117188 -28.585938 19.671875 -28.234375 C 20.222656 -27.878906 20.757812 -27.460938 21.28125 -26.984375 L 18.9375 -22.609375 C 18.445312 -23.140625 18.015625 -23.546875 17.640625 -23.828125 C 17.265625 -24.117188 16.789062 -24.347656 16.21875 -24.515625 C 15.644531 -24.691406 14.910156 -24.78125 14.015625 -24.78125 C 12.628906 -24.78125 11.429688 -24.375 10.421875 -23.5625 C 9.421875 -22.75 8.65625 -21.617188 8.125 -20.171875 C 7.601562 -18.734375 7.34375 -17.085938 7.34375 -15.234375 C 7.34375 -12.890625 7.613281 -10.890625 8.15625 -9.234375 C 8.707031 -7.585938 9.453125 -6.34375 10.390625 -5.5 C 11.335938 -4.664062 12.394531 -4.25 13.5625 -4.25 C 14.800781 -4.25 15.894531 -4.421875 16.84375 -4.765625 C 17.789062 -5.117188 18.519531 -5.5625 19.03125 -6.09375 L 21.3125 -1.953125 C 20.46875 -1.265625 19.441406 -0.679688 18.234375 -0.203125 C 17.035156 0.265625 15.40625 0.5 13.34375 0.5 Z M 13.34375 0.5 "/></g></g></g><g fill="#1c2a4e" fill-opacity="1"><g transform="translate(215.704359, 235.469502)"><g><path d="M 18.1875 0 L 8.796875 -13.953125 L 8.796875 0 L 3.5 0 L 3.5 -29.078125 L 8.796875 -29.078125 L 8.796875 -14.609375 L 18.0625 -29.078125 L 24.203125 -29.078125 L 14.28125 -14.640625 L 24.859375 0 Z M 18.1875 0 "/></g></g></g><g fill="#1c2a4e" fill-opacity="1"><g transform="translate(241.813229, 235.469502)"><g><path d="M 27.828125 -29.578125 L 27.828125 0 L 22.65625 0 L 22.65625 -12.46875 L 22.84375 -17.390625 L 21.359375 -15.140625 L 15.640625 -8.421875 L 9.921875 -15.140625 L 8.453125 -17.390625 L 8.671875 -12.46875 L 8.671875 0 L 3.5 0 L 3.5 -29.578125 L 3.921875 -29.578125 L 15.6875 -15.703125 L 27.375 -29.578125 Z M 27.828125 -29.578125 "/></g></g></g><g fill="#1c2a4e" fill-opacity="1"><g transform="translate(274.386682, 235.469502)"><g><path d="M 17.0625 -4.21875 L 6.671875 -4.21875 L 5.125 0 L -0.703125 0 L 11.59375 -29.578125 L 12.015625 -29.578125 L 24.359375 0 L 18.6875 0 Z M 15.515625 -8.265625 L 12.46875 -16.1875 L 11.765625 -18.515625 L 11.09375 -16.1875 L 8.171875 -8.265625 Z M 15.515625 -8.265625 "/></g></g></g><g fill="#1c2a4e" fill-opacity="1"><g transform="translate(299.286049, 235.469502)"><g><path d="M 3.375 -29.078125 L 8.71875 -29.078125 L 8.71875 0 L 3.375 0 Z M 3.375 -29.078125 "/></g></g></g><g fill="#1c2a4e" fill-opacity="1"><g transform="translate(312.632605, 235.469502)"><g><path d="M 17.484375 -4.59375 L 17.484375 0 L 3.5 0 L 3.5 -29.078125 L 8.796875 -29.078125 L 8.796875 -4.59375 Z M 17.484375 -4.59375 "/></g></g></g></svg>
